<?xml version="1.0" encoding="utf-8"?>
<!-- Generator: Adobe Illustrator 23.0.2, SVG Export Plug-In . SVG Version: 6.00 Build 0)  -->
<svg version="1.1" id="Layer_1" xmlns="http://www.w3.org/2000/svg" xmlns:xlink="http://www.w3.org/1999/xlink" x="0px" y="0px"
	 viewBox="0 0 22.1 21.2" style="enable-background:new 0 0 22.1 21.2;" xml:space="preserve">
<style type="text/css">
	.st0{fill:#836650;}
</style>
<title>beard-icon</title>
<path class="st0" d="M21.8,0h-0.1c-1,3.3-1.3,7.3-4,8.9c-0.5-1.4-1.8-2.1-3.2-2.7c-0.9-0.5-1.8-0.9-2.8-1.1c-0.2,0-0.5,0-0.6,0.1
	C10.8,5,10.6,5,10.4,5c-1,0.2-2,0.6-2.8,1.1C6.1,6.8,4.9,7.4,4.4,8.9c-2.8-1.5-3-5.6-4-8.9H0.3C0.1,0.3,0.1,0.7,0,1
	c0,4.1,0.3,8.2,0.8,12.2c0.5,2.7,2.6,4.6,4.6,5.9c1.4,0.9,3.7,2.1,5.5,2.1s4.2-1.2,5.6-2.1c2-1.3,4.1-3.2,4.6-5.9
	C21.7,9.2,22,5.1,22.1,1C22,0.7,21.9,0.3,21.8,0z M15.8,12c-0.1,0.8-0.7,1.3-1.4,1.5c-1.3,0.1-1.9-1.9-3.4-1.9s-2.1,1.9-3.4,1.9
	c-0.7-0.2-1.3-0.7-1.4-1.5c-0.1-0.9,0.2-1.7,0.7-2.4c0.5-0.5,1.2-0.4,2-0.5C9.7,9,10.4,8.7,11,8.3l0,0c0.6,0.5,1.3,0.8,2.1,0.8
	c0.8,0.1,1.5,0.1,2,0.5C15.6,10.3,15.9,11.1,15.8,12L15.8,12z"/>
</svg>
